Genre:Comedy | Crime | Drama
Language:English
IMDb:http://www.imdb.com/title/tt1251757/
Source:1080p.BluRay.x264-SECTOR7
Subtitles:Romana


Format : MPEG-4
Format profile : Base Media
Codec ID : isom
File size : 2.09 GiB
Duration : 1h 52mn
Overall bit rate : 2 671 Kbps
Movie name : Middle.Men.2009.LIMITED.720p.BRRip.x264.Feel-Free


Video
Format settings, CABAC : Yes
Format settings, ReFrames : 4 frames
Format settings, GOP : M=4, N=16
Codec ID : avc1
Codec ID/Info : Advanced Video Coding
Duration : 1h 52mn
Bit rate mode : Variable
Bit rate : 2 300 Kbps
Width : 1 280 pixels
Height : 528 pixels
Display aspect ratio : 2.40:1
Frame rate mode : Constant
Frame rate : 23.976 fps
Color space : YUV
Chroma subsampling : 4:2:0
Bit depth : 8 bits
Scan type : Progressive
Bits/(Pixel*Frame) : 0.142
Stream size : 1.79 GiB (85%)
Writing library : x264

Audio
ID : 2
Format : AAC
Format/Info : Advanced Audio Codec
Format version : Version 4
Format profile : LC
Codec ID : 40
Duration : 1h 52mn
Bit rate mode : Variable
Bit rate : 384 Kbps
Channel(s) : 6 channels
Channel positions : Front: L C R, Side: L R, LFE
Sampling rate : 48.0 KHz
Stream size : 308 MiB (14%)



Plot:
Chronicles Jack Harris, one of the pioneers of internet commerce, as he wrestles with his morals and struggles not to drown in a sea of conmen, mobsters, drug addicts, and pornstars.

 
http://shareimage.org/images/m7fbyedcjpowph9y5yh4.png
 
http://shareimage.org/images/g9qe8odfxptbqugu8lo9.png
 
http://shareimage.org/images/6d3gfv3zt0wixtgalmc.png
 
http://shareimage.org/images/3gwyyme62gdq96rz6l6r.png
 
http://shareimage.org/images/cc1vugqas80csxf7baqt.png